<svg width="280" height="32" viewBox="0 0 280 32" fill="none" xmlns="http://www.w3.org/2000/svg">
<path d="M26.0271 23.2566L6.95545 10.598V23.2566H0V0L19.1702 12.5602V0H26.0271V23.2566Z" fill="white"/>
<path d="M51.7844 19.8311L54.7822 23.2501H28.6894V0H54.8479L51.883 3.41894H35.6777V9.9287H53.2833V13.3476H35.6777V19.8246H51.7844V19.8311Z" fill="white"/>
<path fill-rule="evenodd" clip-rule="evenodd" d="M62.5004 23.2566L56.8401 16.8453V0H83.2682V23.2566H62.5004ZM63.7955 3.41894V15.3491L67.7532 19.8311H76.3061V3.41894H63.7955Z" fill="white"/>
<path d="M121.832 3.41894H113.214V23.2501H106.258V3.41894H97.5409L94.576 0H124.797L121.832 3.41894Z" fill="white"/>
<path fill-rule="evenodd" clip-rule="evenodd" d="M152.553 0V23.2566H145.565V13.3542H133.252V23.2566H126.132V0H152.553ZM133.35 3.41894V9.89588H145.401V3.41894H133.35Z" fill="white"/>
<path d="M177.877 19.8311L174.879 23.2501H155.209V0H162.164V19.8311H177.877Z" fill="white"/>
<path d="M202.536 19.8311L199.538 23.2501H179.868V0H186.824V19.8311H202.536Z" fill="white"/>
<path d="M227.63 19.8311L230.628 23.2501H204.535V0H230.694L227.729 3.41894H211.523V9.9287H229.129V13.3476H211.523V19.8246H227.63V19.8311Z" fill="white"/>
<path d="M261.908 23.2566H253.69L241.14 8.97061H252.921V3.41894H240.075V23.2501H233.021V0H259.778V12.3895H252.388L261.908 23.2501V23.2566Z" fill="white"/>
<path d="M277.977 27.9564H277.972C276.855 27.9564 275.949 28.8604 275.949 29.9755V29.9809C275.949 31.096 276.855 32 277.972 32H277.977C279.094 32 280 31.096 280 29.9809V29.9755C280 28.8604 279.094 27.9564 277.977 27.9564Z" fill="white"/>
<path d="M271.898 32H139.758V29.9782H271.898V32Z" fill="white"/>
</svg>
