<svg width="24" height="24" viewBox="0 0 24 24" fill="none" xmlns="http://www.w3.org/2000/svg">
<path d="M10.2641 11.2155C10.2641 11.2155 11.9667 11.0861 11.9667 9.04873C11.9667 7.01306 10.8119 6.00956 9.04683 6.00956L3 6V17.2499H9.18745C9.18745 17.2499 12.2812 17.3478 12.2812 13.875C12.2812 13.875 12.5084 11.2155 10.2641 11.2155ZM5.24998 7.68749H8.34371C8.34371 7.68749 9.40233 7.70493 9.40233 9.07742C9.40233 10.5 8.34371 10.5 8.34371 10.5H5.24998V7.68749ZM8.62496 15.5625H5.24998V12.1875H8.62496C8.62496 12.1875 10.3124 12.2049 10.3124 13.875C10.3124 15.545 8.86795 15.5625 8.62496 15.5625Z" fill="white"/>
<path d="M17.0625 8.81274C12.8365 8.81274 12.8438 13.0315 12.8438 13.0315C12.8438 13.0315 12.5626 17.2502 17.0625 17.2502C17.0625 17.2502 21 17.2502 21 13.8752H18.75C18.75 13.8752 18.75 15.5627 17.0625 15.5627C17.0625 15.5627 15.375 15.5627 15.375 13.3127C15.375 13.3127 19.875 13.3127 21 13.3127C21 12.1877 21 8.81274 17.0625 8.81274ZM15.375 12.1877C15.375 12.1877 15.3379 10.5002 17.0625 10.5002C18.7866 10.5002 18.75 12.1877 18.75 12.1877H15.375Z" fill="white"/>
<path d="M19.3127 7.1251H14.8127V8.25009H19.3127V7.1251Z" fill="white"/>
</svg>
