<svg width="48" height="48" viewBox="0 0 48 48" fill="none" xmlns="http://www.w3.org/2000/svg">
<path d="M15.4 32.6C15.7667 32.9667 16.2333 33.15 16.8 33.15C17.3667 33.15 17.8333 32.9667 18.2 32.6L24 26.8L29.85 32.65C30.2167 33.0167 30.6753 33.1913 31.226 33.174C31.7753 33.158 32.2333 32.9667 32.6 32.6C32.9667 32.2333 33.15 31.7667 33.15 31.2C33.15 30.6333 32.9667 30.1667 32.6 29.8L26.8 24L32.65 18.15C33.0167 17.7833 33.1913 17.3247 33.174 16.774C33.158 16.2247 32.9667 15.7667 32.6 15.4C32.2333 15.0333 31.7667 14.85 31.2 14.85C30.6333 14.85 30.1667 15.0333 29.8 15.4L24 21.2L18.15 15.35C17.7833 14.9833 17.3253 14.808 16.776 14.824C16.2253 14.8413 15.7667 15.0333 15.4 15.4C15.0333 15.7667 14.85 16.2333 14.85 16.8C14.85 17.3667 15.0333 17.8333 15.4 18.2L21.2 24L15.35 29.85C14.9833 30.2167 14.8087 30.6747 14.826 31.224C14.842 31.7747 15.0333 32.2333 15.4 32.6ZM24 44C21.2333 44 18.6333 43.4747 16.2 42.424C13.7667 41.3747 11.65 39.95 9.85 38.15C8.05 36.35 6.62533 34.2333 5.576 31.8C4.52533 29.3667 4 26.7667 4 24C4 21.2333 4.52533 18.6333 5.576 16.2C6.62533 13.7667 8.05 11.65 9.85 9.85C11.65 8.05 13.7667 6.62467 16.2 5.574C18.6333 4.52467 21.2333 4 24 4C26.7667 4 29.3667 4.52467 31.8 5.574C34.2333 6.62467 36.35 8.05 38.15 9.85C39.95 11.65 41.3747 13.7667 42.424 16.2C43.4747 18.6333 44 21.2333 44 24C44 26.7667 43.4747 29.3667 42.424 31.8C41.3747 34.2333 39.95 36.35 38.15 38.15C36.35 39.95 34.2333 41.3747 31.8 42.424C29.3667 43.4747 26.7667 44 24 44Z" fill="#292D32"/>
</svg>
