<svg width="48" height="48" viewBox="0 0 48 48" fill="none" xmlns="http://www.w3.org/2000/svg">
<path d="M20 10.5V11H28V10.5C28 9.43913 27.5786 8.42172 26.8284 7.67157C26.0783 6.92143 25.0609 6.5 24 6.5C22.9391 6.5 21.9217 6.92143 21.1716 7.67157C20.4214 8.42172 20 9.43913 20 10.5ZM17.5 11V10.5C17.5 8.77609 18.1848 7.12279 19.4038 5.90381C20.6228 4.68482 22.2761 4 24 4C25.7239 4 27.3772 4.68482 28.5962 5.90381C29.8152 7.12279 30.5 8.77609 30.5 10.5V11H41.75C42.0815 11 42.3995 11.1317 42.6339 11.3661C42.8683 11.6005 43 11.9185 43 12.25C43 12.5815 42.8683 12.8995 42.6339 13.1339C42.3995 13.3683 42.0815 13.5 41.75 13.5H38.833L36.833 37.356C36.681 39.1676 35.854 40.856 34.5158 42.0866C33.1776 43.3172 31.426 44.0001 29.608 44H18.392C16.5742 43.9998 14.8228 43.3168 13.4848 42.0863C12.1468 40.8557 11.3199 39.1674 11.168 37.356L9.168 13.5H6.25C5.91848 13.5 5.60054 13.3683 5.36612 13.1339C5.1317 12.8995 5 12.5815 5 12.25C5 11.9185 5.1317 11.6005 5.36612 11.3661C5.60054 11.1317 5.91848 11 6.25 11H17.5ZM21.5 20.25C21.5 20.0858 21.4677 19.9233 21.4049 19.7716C21.342 19.62 21.25 19.4822 21.1339 19.3661C21.0178 19.25 20.88 19.158 20.7284 19.0951C20.5767 19.0323 20.4142 19 20.25 19C20.0858 19 19.9233 19.0323 19.7716 19.0951C19.62 19.158 19.4822 19.25 19.3661 19.3661C19.25 19.4822 19.158 19.62 19.0951 19.7716C19.0323 19.9233 19 20.0858 19 20.25V34.75C19 34.9142 19.0323 35.0767 19.0951 35.2284C19.158 35.38 19.25 35.5178 19.3661 35.6339C19.4822 35.75 19.62 35.842 19.7716 35.9049C19.9233 35.9677 20.0858 36 20.25 36C20.4142 36 20.5767 35.9677 20.7284 35.9049C20.88 35.842 21.0178 35.75 21.1339 35.6339C21.25 35.5178 21.342 35.38 21.4049 35.2284C21.4677 35.0767 21.5 34.9142 21.5 34.75V20.25ZM27.75 19C27.06 19 26.5 19.56 26.5 20.25V34.75C26.5 35.0815 26.6317 35.3995 26.8661 35.6339C27.1005 35.8683 27.4185 36 27.75 36C28.0815 36 28.3995 35.8683 28.6339 35.6339C28.8683 35.3995 29 35.0815 29 34.75V20.25C29 19.56 28.44 19 27.75 19Z" fill="#292D32"/>
</svg>
