<svg width="52" height="52" viewBox="0 0 52 52" fill="none" xmlns="http://www.w3.org/2000/svg">
<path d="M1.60751 46.3056L2.00483 5.69213C2.01441 4.7129 2.41259 3.77762 3.11177 3.09198C3.81096 2.40635 4.75386 2.02654 5.73309 2.03612L46.3465 2.43344C47.3257 2.44302 48.2612 2.8412 48.9467 3.54038C49.6322 4.23957 50.0121 5.18247 50.0025 6.1617L49.6052 46.7751C49.5956 47.7543 49.1973 48.6898 48.4982 49.3753C47.7992 50.0608 46.8561 50.4407 45.877 50.4311L34.8006 50.3228L34.9718 32.8221L37.5932 32.8477C38.1906 32.8536 38.7656 32.6219 39.1921 32.2037C39.6186 31.7854 39.8616 31.2149 39.8674 30.6176L39.8952 27.7746C39.8981 27.4788 39.8427 27.1854 39.7324 26.9111C39.6217 26.6367 39.4583 26.3868 39.251 26.1756C39.0441 25.9644 38.7972 25.7961 38.5251 25.6802C38.253 25.5644 37.9608 25.5033 37.6651 25.5004L35.1913 25.4762L35.2253 22.0056C35.2556 18.9042 36.6586 18.9179 38.0617 18.9316L39.8708 18.9493C40.1679 18.9645 40.4645 18.9142 40.74 18.8021C41.0154 18.6899 41.263 18.5186 41.4649 18.3003C41.6814 18.0981 41.8537 17.8532 41.9708 17.5811C42.0879 17.3089 42.1473 17.0155 42.145 16.7192L42.1718 13.987C42.1847 13.6865 42.1381 13.3863 42.0346 13.1038C41.9313 12.8212 41.7736 12.5618 41.5698 12.3403C41.3662 12.1189 41.121 11.9397 40.8482 11.8131C40.5755 11.6864 40.2801 11.6148 39.9796 11.6024L35.7337 11.5608C34.4952 11.5021 33.2588 11.713 32.1097 12.1788C30.9607 12.6446 29.9266 13.3543 29.0786 14.2588C28.2307 15.1634 27.5892 16.2412 27.1984 17.4178C26.8077 18.5945 26.6771 19.8419 26.8155 21.074L26.7733 25.3938L24.4103 25.3707C24.1115 25.3629 23.8141 25.4146 23.5355 25.5229C23.2569 25.6312 23.0026 25.7938 22.7875 26.0014C22.5724 26.2089 22.4008 26.4572 22.2826 26.7317C22.1644 27.0063 22.1021 27.3016 22.0992 27.6005L22.0714 30.4435C22.0684 30.7423 22.1249 31.0388 22.2377 31.3157C22.3505 31.5925 22.5173 31.8441 22.7283 32.0558C22.9393 32.2675 23.1903 32.4351 23.4668 32.5488C23.7432 32.6625 24.0396 32.72 24.3384 32.7181L26.7014 32.7412L26.5302 50.2419L5.26352 50.0338C4.28429 50.0242 3.34901 49.6259 2.66337 48.9269C1.97773 48.2278 1.59793 47.2847 1.60751 46.3056Z" stroke="black" stroke-width="3" stroke-linecap="round" stroke-linejoin="round"/>
</svg>
