<svg width="48" height="48" viewBox="0 0 48 48" fill="none" xmlns="http://www.w3.org/2000/svg">
<g clip-path="url(#clip0_39_884)">
<path d="M29.3333 44.0002V26.0002L44.6266 10.6668C44.8539 10.4395 45.0335 10.1691 45.1549 9.87147C45.2762 9.57381 45.3369 9.25492 45.3333 8.9335V6.66683C45.3333 6.31321 45.1928 5.97407 44.9428 5.72402C44.6927 5.47397 44.3536 5.3335 44 5.3335H3.99996C3.64634 5.3335 3.3072 5.47397 3.05715 5.72402C2.8071 5.97407 2.66663 6.31321 2.66663 6.66683V8.8935C2.66688 9.20841 2.72944 9.52016 2.85073 9.81079C2.97201 10.1014 3.14961 10.3652 3.37329 10.5868L18.6666 26.1068V39.7068L29.3333 44.0002Z" fill="#292D32"/>
<path d="M44.64 5.3335H3.30667C3.13218 5.34696 2.96924 5.42591 2.85053 5.5545C2.73183 5.6831 2.66615 5.85182 2.66667 6.02683V8.32016C2.66506 8.55522 2.71021 8.78825 2.79948 9.00571C2.88875 9.22316 3.02037 9.4207 3.18667 9.58683L19.1867 25.5868V38.9202L28.8533 43.7335V25.5602L44.8533 9.56016C45.1595 9.22999 45.3307 8.79707 45.3333 8.34683V6.02683C45.3333 5.84295 45.2603 5.66659 45.1303 5.53657C45.0002 5.40654 44.8239 5.3335 44.64 5.3335Z" fill="#292D32"/>
</g>
<defs>
<clipPath id="clip0_39_884">
<rect width="48" height="48" fill="white"/>
</clipPath>
</defs>
</svg>
