<svg width="48" height="48" viewBox="0 0 48 48" fill="none" xmlns="http://www.w3.org/2000/svg">
<g clip-path="url(#clip0_39_883)">
<path d="M44 5.3335H3.99996C3.64634 5.3335 3.3072 5.47397 3.05715 5.72402C2.8071 5.97407 2.66663 6.31321 2.66663 6.66683V8.8935C2.66688 9.20841 2.72944 9.52016 2.85073 9.81079C2.97201 10.1014 3.14961 10.3652 3.37329 10.5868L18.6666 26.1068V39.7068L21.3333 40.7202V25.3335C21.3343 25.158 21.3007 24.9841 21.2343 24.8216C21.168 24.6592 21.0702 24.5114 20.9466 24.3868L5.33329 8.78683V8.00016H42.6666V8.8135L27.1066 24.3868C26.9734 24.5069 26.8657 24.6526 26.7901 24.8153C26.7145 24.978 26.6725 25.1542 26.6666 25.3335V42.9468L29.3333 44.0002V26.0002L44.6266 10.6668C44.8539 10.4395 45.0335 10.1691 45.1549 9.87147C45.2762 9.57381 45.3369 9.25492 45.3333 8.9335V6.66683C45.3333 6.31321 45.1928 5.97407 44.9428 5.72402C44.6927 5.47397 44.3536 5.3335 44 5.3335Z" fill="#292D32"/>
</g>
<defs>
<clipPath id="clip0_39_883">
<rect width="48" height="48" fill="white"/>
</clipPath>
</defs>
</svg>
