<svg width="52" height="52" viewBox="0 0 52 52" fill="none" xmlns="http://www.w3.org/2000/svg">
<path d="M26 50C39.2547 50 50 39.2547 50 26C50 12.7452 39.2547 2 26 2C12.7452 2 2 12.7452 2 26C2 39.2547 12.7452 50 26 50Z" stroke="#292D32" stroke-width="4" stroke-linecap="round" stroke-linejoin="round"/>
<path d="M16.4 4.3999H18.8C14.12 18.4159 14.12 33.5839 18.8 47.5999H16.4" stroke="#292D32" stroke-width="4" stroke-linecap="round" stroke-linejoin="round"/>
<path d="M33.2 4.3999C37.88 18.4159 37.88 33.5839 33.2 47.5999" stroke="#292D32" stroke-width="4" stroke-linecap="round" stroke-linejoin="round"/>
<path d="M4.40002 35.6002V33.2002C18.416 37.8802 33.584 37.8802 47.6 33.2002V35.6002" stroke="#292D32" stroke-width="4" stroke-linecap="round" stroke-linejoin="round"/>
<path d="M4.40002 18.8C18.416 14.12 33.584 14.12 47.6 18.8" stroke="#292D32" stroke-width="4" stroke-linecap="round" stroke-linejoin="round"/>
</svg>
