<svg width="48" height="48" viewBox="0 0 48 48" fill="none" xmlns="http://www.w3.org/2000/svg">
<path d="M24 0C10.776 0 0 10.776 0 24C0 37.224 10.776 48 24 48C37.224 48 48 37.224 48 24C48 10.776 37.224 0 24 0ZM30.696 25.272L22.224 33.744C21.864 34.104 21.408 34.272 20.952 34.272C20.496 34.272 20.04 34.104 19.68 33.744C18.984 33.048 18.984 31.896 19.68 31.2L26.88 24L19.68 16.8C18.984 16.104 18.984 14.952 19.68 14.256C20.376 13.56 21.528 13.56 22.224 14.256L30.696 22.728C31.416 23.424 31.416 24.576 30.696 25.272Z" fill="#292D32"/>
</svg>
