<svg width="48" height="48" viewBox="0 0 48 48" fill="none" xmlns="http://www.w3.org/2000/svg">
<path d="M24 0C10.776 0 0 10.776 0 24C0 37.224 10.776 48 24 48C37.224 48 48 37.224 48 24C48 10.776 37.224 0 24 0ZM28.296 31.2C28.992 31.896 28.992 33.048 28.296 33.744C27.936 34.104 27.48 34.272 27.024 34.272C26.568 34.272 26.112 34.104 25.752 33.744L17.28 25.272C16.584 24.576 16.584 23.424 17.28 22.728L25.752 14.256C26.448 13.56 27.6 13.56 28.296 14.256C28.992 14.952 28.992 16.104 28.296 16.8L21.096 24L28.296 31.2Z" fill="#292D32"/>
</svg>
