<svg width="48" height="65" viewBox="0 0 48 65" fill="none" xmlns="http://www.w3.org/2000/svg">
<path d="M36.53 28.7477H11.4605C8.8754 28.7477 6.89158 27.7257 5.98981 25.9824C5.08804 24.2089 5.44866 22.0145 6.95161 19.9405L19.4862 2.38596C21.7106 -0.800316 26.3096 -0.800309 28.5641 2.41602L41.0987 19.9405C42.6017 22.0145 42.9624 24.2089 42.0606 25.9824C41.0987 27.7257 39.1151 28.7477 36.53 28.7477ZM23.9951 4.36983C23.7245 4.36983 23.424 4.61034 23.1534 4.97105L10.6189 22.5556C10.0177 23.3672 9.98765 23.8481 10.0177 23.9384C10.0478 23.9985 10.4686 24.2389 11.4906 24.2389H36.5598C37.5518 24.2389 37.9729 23.9684 38.033 23.9083C38.033 23.8481 38.0026 23.3672 37.4315 22.5556L24.8969 5.0011C24.5662 4.58028 24.2656 4.36983 23.9951 4.36983Z" fill="#292D32"/>
<path d="M40.7966 52.6157H7.2205C2.92205 52.6157 1.20862 50.5416 0.577375 49.3092C-0.0538663 48.0768 -0.715167 45.4917 1.8098 42.0048L13.8034 25.1716C14.2242 24.5704 14.9156 24.2397 15.637 24.2397H32.3801C33.1015 24.2397 33.7928 24.6005 34.2137 25.1716L46.2073 42.0349C48.7322 45.4917 48.0409 48.0768 47.4096 49.3092C46.7784 50.5416 45.0951 52.6157 40.7966 52.6157ZM16.7793 28.7487L5.44692 44.65C4.48503 45.9726 4.39491 46.8744 4.57527 47.2652C4.78568 47.6559 5.56722 48.1068 7.19041 48.1068H40.7666C42.3897 48.1068 43.2013 47.6559 43.3817 47.2652C43.5921 46.8744 43.4719 45.9726 42.51 44.65L31.1777 28.7187H16.7793V28.7487Z" fill="#292D32"/>
<path d="M23.9945 64.639C22.762 64.639 21.74 63.617 21.74 62.3845V50.3609C21.74 49.1285 22.762 48.1064 23.9945 48.1064C25.2269 48.1064 26.2489 49.1285 26.2489 50.3609V62.3845C26.2489 63.617 25.2269 64.639 23.9945 64.639Z" fill="#292D32"/>
</svg>
