<svg width="48" height="36" viewBox="0 0 48 36" fill="none" xmlns="http://www.w3.org/2000/svg">
<path d="M17.6919 35.3902C18.185 35.3902 18.678 35.2085 19.0673 34.8192C19.8199 34.0667 19.8199 32.821 19.0673 32.0685L4.69062 17.6918L19.0673 3.3152C19.8199 2.56263 19.8199 1.317 19.0673 0.564427C18.3147 -0.188142 17.0691 -0.188142 16.3165 0.564427L0.564468 16.3164C-0.188101 17.069 -0.188101 18.3146 0.564468 19.0672L16.3165 34.8192C16.7058 35.2085 17.1988 35.3902 17.6919 35.3902Z" fill="#292D32"/>
<path d="M2.37875 19.6377H46.0537C47.1177 19.6377 48 18.7554 48 17.6914C48 16.6274 47.1177 15.7451 46.0537 15.7451H2.37875C1.31477 15.7451 0.432449 16.6274 0.432449 17.6914C0.432449 18.7554 1.31477 19.6377 2.37875 19.6377Z" fill="#292D32"/>
</svg>
