<svg width="52" height="52" viewBox="0 0 52 52" fill="none" xmlns="http://www.w3.org/2000/svg">
<path d="M38 50.0002H14C4.4 50.0002 2 47.6002 2 38.0002V33.2002C2 23.6002 4.4 21.2002 14 21.2002H38C47.6 21.2002 50 23.6002 50 33.2002V38.0002C50 47.6002 47.6 50.0002 38 50.0002Z" stroke="#292D32" stroke-width="4" stroke-linecap="round" stroke-linejoin="round"/>
<path d="M11.6 21.2V16.4C11.6 8.456 14 2 26 2C36.8 2 40.4 6.8 40.4 14" stroke="#292D32" stroke-width="4" stroke-linecap="round" stroke-linejoin="round"/>
<path d="M26 41.6001C29.3137 41.6001 32 38.9138 32 35.6001C32 32.2864 29.3137 29.6001 26 29.6001C22.6863 29.6001 20 32.2864 20 35.6001C20 38.9138 22.6863 41.6001 26 41.6001Z" stroke="#292D32" stroke-width="4" stroke-linecap="round" stroke-linejoin="round"/>
</svg>
