<svg width="48" height="49" viewBox="0 0 48 49" fill="none" xmlns="http://www.w3.org/2000/svg">
<path d="M17.1473 1.67432H8.41737C3.90728 1.67432 1.67456 3.90703 1.67456 8.41712V17.1694C1.67456 21.7688 3.90728 24.0015 8.41737 23.8898H17.1696C21.769 24.0015 24.0017 21.7688 23.8901 17.147V8.41712C24.0017 3.90703 21.769 1.67432 17.1473 1.67432ZM17.3259 19.0002C15.8077 19.0002 14.3341 18.4197 13.1061 17.3926C11.7218 18.3974 10.0472 19.0002 8.23875 19.0002C7.32333 19.0002 6.56421 18.2411 6.56421 17.3257C6.56421 16.4102 7.32333 15.6511 8.23875 15.6511C10.5161 15.6511 12.4139 14.0882 13.1061 11.9448H8.23875C7.32333 11.9448 6.56421 11.1857 6.56421 10.2703C6.56421 9.35486 7.32333 8.59574 8.23875 8.59574H11.119C11.2083 7.74731 11.9004 7.07749 12.7712 7.07749C13.6419 7.07749 14.3341 7.74731 14.4234 8.59574H15.0039H15.0485H15.0932H17.3036C18.219 8.59574 18.9781 9.35486 18.9781 10.2703C18.9781 11.1857 18.2413 11.9448 17.3036 11.9448H16.5668C16.3658 13.0165 15.9416 14.0212 15.3834 14.9367C15.9863 15.3832 16.6338 15.6511 17.3259 15.6511C18.2413 15.6511 19.0004 16.4102 19.0004 17.3257C19.0004 18.2411 18.2413 19.0002 17.3259 19.0002Z" fill="#292D32"/>
<path d="M17.3036 48.0035C7.76985 48.0035 0 40.2336 0 30.6999C0 29.7845 0.759124 29.0254 1.67454 29.0254C2.58995 29.0254 3.34908 29.7845 3.34908 30.6999C3.34908 37.3088 7.94847 42.8459 14.1331 44.2972L13.5303 43.2924C13.0614 42.4887 13.307 41.4616 14.1108 40.9928C14.8922 40.5239 15.9416 40.7695 16.4105 41.5733L18.7548 45.4805C19.0674 45.994 19.0674 46.6415 18.7771 47.1551C18.4646 47.6686 17.9064 48.0035 17.3036 48.0035Z" fill="#292D32"/>
<path d="M46.3255 18.9781C45.4101 18.9781 44.651 18.219 44.651 17.3036C44.651 10.6947 40.0516 5.15758 33.867 3.70631L34.4698 4.71103C34.9387 5.51481 34.6931 6.54186 33.8893 7.01073C33.1078 7.4796 32.0585 7.234 31.5896 6.43022L29.2452 2.52297C28.9327 2.00945 28.9327 1.36196 29.2229 0.848432C29.5355 0.334908 30.0937 0 30.6965 0C40.2302 0 48.0001 7.76985 48.0001 17.3036C48.0001 18.219 47.2409 18.9781 46.3255 18.9781Z" fill="#292D32"/>
<path d="M34.9864 23.6704C28.7348 23.6704 23.6442 28.7387 23.6442 35.0126C23.6442 41.2642 28.7124 46.3548 34.9864 46.3548C41.238 46.3548 46.3286 41.2865 46.3286 35.0126C46.3286 28.7387 41.2603 23.6704 34.9864 23.6704ZM40.5235 40.3935C39.6974 40.7953 38.6927 40.4828 38.2685 39.6343L37.8889 38.8752H32.1062L31.7266 39.6343C31.4363 40.2148 30.8335 40.5497 30.2307 40.5497C29.9851 40.5497 29.7172 40.4828 29.4939 40.3711C28.6678 39.9469 28.3329 38.9422 28.7348 38.1161L33.5128 28.5824C33.803 28.0242 34.3835 27.667 35.0087 27.667C35.6339 27.667 36.2144 28.0242 36.5046 28.6047L41.2826 38.1384C41.6845 38.9645 41.3496 39.9692 40.5235 40.3935Z" fill="#292D32"/>
<path d="M33.7786 35.523H36.2122L34.9842 33.0894L33.7786 35.523Z" fill="#292D32"/>
</svg>
