<svg width="48" height="36" viewBox="0 0 48 36" fill="none" xmlns="http://www.w3.org/2000/svg">
<path d="M30.3082 35.3902C29.8152 35.3902 29.3221 35.2085 28.9328 34.8192C28.1803 34.0667 28.1803 32.821 28.9328 32.0685L43.3095 17.6918L28.9328 3.3152C28.1803 2.56263 28.1803 1.317 28.9328 0.564427C29.6854 -0.188142 30.931 -0.188142 31.6836 0.564427L47.4357 16.3164C48.1882 17.069 48.1882 18.3146 47.4357 19.0672L31.6836 34.8192C31.2943 35.2085 30.8013 35.3902 30.3082 35.3902Z" fill="#292D32"/>
<path d="M45.6213 19.6377H1.9463C0.882322 19.6377 0 18.7554 0 17.6914C0 16.6274 0.882322 15.7451 1.9463 15.7451H45.6213C46.6852 15.7451 47.5676 16.6274 47.5676 17.6914C47.5676 18.7554 46.6852 19.6377 45.6213 19.6377Z" fill="#292D32"/>
</svg>
