<svg width="48" height="46" viewBox="0 0 48 46" fill="none" xmlns="http://www.w3.org/2000/svg">
<path d="M26.2326 28.4101H1.67442C0.75907 28.4101 0 27.6946 0 26.8317V9.99613C0 4.48248 4.75535 0 10.6047 0H30.6977C31.613 0 32.3721 0.715513 32.3721 1.57834V22.6228C32.3721 25.8216 29.626 28.4101 26.2326 28.4101ZM3.34884 25.2534H26.2326C27.773 25.2534 29.0233 24.0749 29.0233 22.6228V3.15667H10.6047C6.60837 3.15667 3.34884 6.22917 3.34884 9.99613V25.2534Z" fill="#292D32"/>
<path d="M39.6279 41.0369H37.3954C36.48 41.0369 35.7209 40.3214 35.7209 39.4586C35.7209 38.0065 34.4707 36.828 32.9302 36.828C31.3898 36.828 30.1395 38.0065 30.1395 39.4586C30.1395 40.3214 29.3805 41.0369 28.4651 41.0369H19.5349C18.6195 41.0369 17.8605 40.3214 17.8605 39.4586C17.8605 38.0065 16.6102 36.828 15.0698 36.828C13.5293 36.828 12.2791 38.0065 12.2791 39.4586C12.2791 40.3214 11.52 41.0369 10.6047 41.0369H8.37209C3.7507 41.0369 0 37.5014 0 33.1452V26.8319C0 25.969 0.75907 25.2535 1.67442 25.2535H26.2326C27.773 25.2535 29.0233 24.075 29.0233 22.623V7.89181C29.0233 7.02899 29.7823 6.31348 30.6977 6.31348H34.8056C37.0158 6.31348 39.0474 7.42886 40.1414 9.23868L43.9591 15.531C44.2493 16.015 44.2493 16.6253 43.9591 17.1093C43.6688 17.5933 43.1107 17.8879 42.5079 17.8879H39.6279C39.3153 17.8879 39.0698 18.1194 39.0698 18.4141V24.7274C39.0698 25.022 39.3153 25.2535 39.6279 25.2535H46.3256C47.2409 25.2535 48 25.969 48 26.8319V33.1452C48 37.5014 44.2493 41.0369 39.6279 41.0369ZM38.8465 37.8802H39.6279C42.3963 37.8802 44.6512 35.7547 44.6512 33.1452V28.4102H39.6279C37.4847 28.4102 35.7209 26.7477 35.7209 24.7274V18.4141C35.7209 16.3938 37.4623 14.7313 39.6279 14.7313L37.2391 10.796C36.7479 9.97522 35.8102 9.47015 34.8056 9.47015H32.3721V22.623C32.3721 25.8217 29.626 28.4102 26.2326 28.4102H3.34884V33.1452C3.34884 35.7547 5.60372 37.8802 8.37209 37.8802H9.15351C9.89025 35.4601 12.2567 33.6713 15.0698 33.6713C17.8828 33.6713 20.2493 35.4601 20.986 37.8802H27.0363C27.773 35.4601 30.1395 33.6713 32.9526 33.6713C35.7656 33.6713 38.1098 35.4601 38.8465 37.8802Z" fill="#292D32"/>
<path d="M15.0698 45.2459C11.6763 45.2459 8.93022 42.6574 8.93022 39.4586C8.93022 36.2599 11.6763 33.6714 15.0698 33.6714C18.4632 33.6714 21.2093 36.2599 21.2093 39.4586C21.2093 42.6574 18.4632 45.2459 15.0698 45.2459ZM15.0698 36.8281C13.5293 36.8281 12.2791 38.0066 12.2791 39.4586C12.2791 40.9107 13.5293 42.0892 15.0698 42.0892C16.6102 42.0892 17.8605 40.9107 17.8605 39.4586C17.8605 38.0066 16.6102 36.8281 15.0698 36.8281Z" fill="#292D32"/>
<path d="M32.9302 45.2459C29.5367 45.2459 26.7907 42.6574 26.7907 39.4586C26.7907 36.2599 29.5367 33.6714 32.9302 33.6714C36.3237 33.6714 39.0697 36.2599 39.0697 39.4586C39.0697 42.6574 36.3237 45.2459 32.9302 45.2459ZM32.9302 36.8281C31.3897 36.8281 30.1395 38.0066 30.1395 39.4586C30.1395 40.9107 31.3897 42.0892 32.9302 42.0892C34.4707 42.0892 35.7209 40.9107 35.7209 39.4586C35.7209 38.0066 34.4707 36.8281 32.9302 36.8281Z" fill="#292D32"/>
<path d="M46.3256 28.4099H39.6279C37.4847 28.4099 35.721 26.7474 35.721 24.7271V18.4137C35.721 16.3935 37.4847 14.731 39.6279 14.731H42.5079C43.1107 14.731 43.6689 15.0256 43.9591 15.5306L47.7768 21.844C47.9107 22.0755 48 22.3491 48 22.6226V26.8315C48 27.6944 47.241 28.4099 46.3256 28.4099ZM39.6279 17.8876C39.3154 17.8876 39.0698 18.1191 39.0698 18.4137V24.7271C39.0698 25.0217 39.3154 25.2532 39.6279 25.2532H44.6512V23.0435L41.5256 17.8876H39.6279Z" fill="#292D32"/>
</svg>
