<svg width="48" height="50" viewBox="0 0 48 50" fill="none" xmlns="http://www.w3.org/2000/svg">
<path d="M30.2841 49.5766H17.8322C6.44113 49.5766 1.59875 44.7112 1.59875 33.3431V22.9897C1.59875 22.0443 2.38276 21.2603 3.32817 21.2603C4.27359 21.2603 5.05759 22.0443 5.05759 22.9897V33.3431C5.05759 42.7742 8.40114 46.1178 17.8322 46.1178H30.2611C39.6922 46.1178 43.0357 42.7742 43.0357 33.3431V22.9897C43.0357 22.0443 43.8197 21.2603 44.7651 21.2603C45.7105 21.2603 46.4945 22.0443 46.4945 22.9897V33.3431C46.5176 44.7112 41.6522 49.5766 30.2841 49.5766Z" fill="#292D32"/>
<path d="M24.0565 26.5178C21.52 26.5178 19.2141 25.5262 17.577 23.7046C15.9398 21.8829 15.1788 19.5078 15.4325 16.9714L16.9774 1.56801C17.0697 0.691768 17.8076 0 18.7069 0H29.4753C30.3746 0 31.1125 0.668709 31.2047 1.56801L32.7497 16.9714C33.0033 19.5078 32.2424 21.8829 30.6052 23.7046C28.8988 25.5262 26.5929 26.5178 24.0565 26.5178ZM20.2517 3.45884L18.8683 17.3173C18.7068 18.8622 19.168 20.3149 20.1364 21.3756C22.0965 23.5432 26.0165 23.5432 27.9765 21.3756C28.945 20.2919 29.4061 18.8391 29.2447 17.3173L27.8612 3.45884H20.2517Z" fill="#292D32"/>
<path d="M38.6089 26.5178C33.928 26.5178 29.7543 22.7361 29.2701 18.0782L27.6559 1.91389C27.6098 1.42965 27.7712 0.945416 28.0941 0.576473C28.4169 0.20753 28.8781 0 29.3854 0H36.4183C43.1977 0 46.3567 2.83625 47.3021 9.80004L47.9478 16.2104C48.2245 18.9314 47.3944 21.514 45.6188 23.474C43.8433 25.434 41.3529 26.5178 38.6089 26.5178ZM31.2993 3.45884L32.7289 17.7323C33.0287 20.6147 35.7035 23.0589 38.6089 23.0589C40.3614 23.0589 41.9294 22.3902 43.0593 21.1681C44.1661 19.946 44.6734 18.3088 44.512 16.5563L43.8664 10.2151C43.1515 5.00379 41.4682 3.45884 36.4183 3.45884H31.2993Z" fill="#292D32"/>
<path d="M9.39107 26.5178C6.64705 26.5178 4.15669 25.434 2.38115 23.474C0.605617 21.514 -0.224505 18.9314 0.0522022 16.2104L0.674793 9.86922C1.64327 2.83625 4.80234 0 11.5817 0H18.6146C19.0989 0 19.56 0.20753 19.9058 0.576473C20.2517 0.945416 20.3901 1.42965 20.344 1.91389L18.7299 18.0782C18.2457 22.7361 14.072 26.5178 9.39107 26.5178ZM11.5817 3.45884C6.53176 3.45884 4.84846 4.98073 4.11057 10.2612L3.48798 16.5563C3.30351 18.3088 3.83387 19.946 4.94069 21.1681C6.04752 22.3902 7.61553 23.0589 9.39107 23.0589C12.2965 23.0589 14.9944 20.6147 15.2711 17.7323L16.7008 3.45884H11.5817Z" fill="#292D32"/>
<path d="M29.8235 49.5767H18.294C17.3486 49.5767 16.5646 48.7927 16.5646 47.8473V42.0825C16.5646 37.2402 19.2164 34.5884 24.0587 34.5884C28.9011 34.5884 31.5529 37.2402 31.5529 42.0825V47.8473C31.5529 48.7927 30.7689 49.5767 29.8235 49.5767ZM20.0234 46.1178H28.094V42.0825C28.094 39.1771 26.9641 38.0472 24.0587 38.0472C21.1533 38.0472 20.0234 39.1771 20.0234 42.0825V46.1178Z" fill="#292D32"/>
</svg>
