<svg width="24" height="24" viewBox="0 0 24 24" fill="none" xmlns="http://www.w3.org/2000/svg">
<path d="M9.08333 12.0729C9.08333 10.4203 10.4235 9.08018 12.0772 9.08018C13.7308 9.08018 15.0717 10.4203 15.0717 12.0729C15.0717 13.7256 13.7308 15.0657 12.0772 15.0657C10.4235 15.0657 9.08333 13.7256 9.08333 12.0729ZM7.46454 12.0729C7.46454 14.619 9.5296 16.6828 12.0772 16.6828C14.6247 16.6828 16.6898 14.619 16.6898 12.0729C16.6898 9.52691 14.6247 7.46308 12.0772 7.46308C9.5296 7.46308 7.46454 9.52691 7.46454 12.0729ZM15.7944 7.2803C15.7943 7.49337 15.8575 7.70168 15.9759 7.87889C16.0942 8.0561 16.2625 8.19424 16.4595 8.27586C16.6564 8.35748 16.8731 8.3789 17.0823 8.33742C17.2914 8.29593 17.4835 8.1934 17.6343 8.0428C17.7851 7.8922 17.8879 7.70028 17.9295 7.49132C17.9712 7.28236 17.9499 7.06574 17.8684 6.86886C17.7869 6.67197 17.6488 6.50367 17.4716 6.38522C17.2944 6.26677 17.086 6.20351 16.8728 6.20342H16.8724C16.5866 6.20356 16.3126 6.31704 16.1105 6.51895C15.9083 6.72086 15.7947 6.99469 15.7944 7.2803ZM8.44806 19.3804C7.57226 19.3406 7.09624 19.1948 6.77989 19.0716C6.3605 18.9084 6.06126 18.7141 5.74664 18.4001C5.43202 18.0861 5.23727 17.7873 5.07472 17.3682C4.9514 17.0522 4.80552 16.5763 4.76571 15.701C4.72216 14.7547 4.71346 14.4704 4.71346 12.073C4.71346 9.67558 4.72288 9.3921 4.76571 8.44501C4.80559 7.56973 4.95255 7.09478 5.07472 6.77784C5.23799 6.3587 5.43246 6.05964 5.74664 5.74521C6.06083 5.43078 6.35978 5.23615 6.77989 5.07369C7.09609 4.95045 7.57226 4.80465 8.44806 4.76486C9.39493 4.72134 9.67936 4.71265 12.0772 4.71265C14.4749 4.71265 14.7597 4.72206 15.7073 4.76486C16.5831 4.80472 17.0584 4.95159 17.3755 5.07369C17.7949 5.23615 18.0941 5.43121 18.4087 5.74521C18.7234 6.05921 18.9174 6.3587 19.0807 6.77784C19.204 7.09385 19.3499 7.56973 19.3897 8.44501C19.4332 9.3921 19.4419 9.67558 19.4419 12.073C19.4419 14.4704 19.4332 14.7539 19.3897 15.701C19.3498 16.5763 19.2032 17.052 19.0807 17.3682C18.9174 17.7873 18.7229 18.0864 18.4087 18.4001C18.0946 18.7138 17.7949 18.9084 17.3755 19.0716C17.0593 19.1949 16.5831 19.3407 15.7073 19.3804C14.7605 19.424 14.476 19.4327 12.0772 19.4327C9.67829 19.4327 9.39464 19.424 8.44806 19.3804ZM8.37368 3.14977C7.41739 3.19329 6.76394 3.34483 6.19327 3.56675C5.60227 3.79593 5.10196 4.1034 4.602 4.60226C4.10205 5.10112 3.79519 5.60193 3.56588 6.19258C3.34382 6.76326 3.19219 7.41596 3.14864 8.37168C3.10437 9.3289 3.09424 9.63493 3.09424 12.0729C3.09424 14.511 3.10437 14.817 3.14864 15.7742C3.19219 16.73 3.34382 17.3826 3.56588 17.9533C3.79519 18.5436 4.10212 19.045 4.602 19.5436C5.10188 20.0423 5.60227 20.3493 6.19327 20.5791C6.76502 20.801 7.41739 20.9526 8.37368 20.9961C9.33198 21.0396 9.63768 21.0505 12.0772 21.0505C14.5166 21.0505 14.8228 21.0403 15.7806 20.9961C16.737 20.9526 17.39 20.801 17.961 20.5791C18.5517 20.3493 19.0524 20.0425 19.5523 19.5436C20.0523 19.0448 20.3585 18.5436 20.5884 17.9533C20.8105 17.3826 20.9628 16.7299 21.0057 15.7742C21.0492 14.8163 21.0594 14.511 21.0594 12.0729C21.0594 9.63493 21.0492 9.3289 21.0057 8.37168C20.9621 7.41589 20.8105 6.7629 20.5884 6.19258C20.3585 5.60229 20.0515 5.10191 19.5523 4.60226C19.0531 4.10261 18.5517 3.79593 17.9618 3.56675C17.39 3.34483 16.7369 3.19257 15.7814 3.14977C14.8236 3.10624 14.5173 3.0954 12.0779 3.0954C9.6384 3.0954 9.33198 3.10552 8.37368 3.14977Z" fill="white"/>
<path d="M9.08333 12.0729C9.08333 10.4203 10.4235 9.08018 12.0772 9.08018C13.7308 9.08018 15.0717 10.4203 15.0717 12.0729C15.0717 13.7256 13.7308 15.0657 12.0772 15.0657C10.4235 15.0657 9.08333 13.7256 9.08333 12.0729ZM7.46454 12.0729C7.46454 14.619 9.5296 16.6828 12.0772 16.6828C14.6247 16.6828 16.6898 14.619 16.6898 12.0729C16.6898 9.52691 14.6247 7.46308 12.0772 7.46308C9.5296 7.46308 7.46454 9.52691 7.46454 12.0729ZM15.7944 7.2803C15.7943 7.49337 15.8575 7.70168 15.9759 7.87889C16.0942 8.0561 16.2625 8.19424 16.4595 8.27586C16.6564 8.35748 16.8731 8.3789 17.0823 8.33742C17.2914 8.29593 17.4835 8.1934 17.6343 8.0428C17.7851 7.8922 17.8879 7.70028 17.9295 7.49132C17.9712 7.28236 17.9499 7.06574 17.8684 6.86886C17.7869 6.67197 17.6488 6.50367 17.4716 6.38522C17.2944 6.26677 17.086 6.20351 16.8728 6.20342H16.8724C16.5866 6.20356 16.3126 6.31704 16.1105 6.51895C15.9083 6.72086 15.7947 6.99469 15.7944 7.2803ZM8.44806 19.3804C7.57226 19.3406 7.09624 19.1948 6.77989 19.0716C6.3605 18.9084 6.06126 18.7141 5.74664 18.4001C5.43202 18.0861 5.23727 17.7873 5.07472 17.3682C4.9514 17.0522 4.80552 16.5763 4.76571 15.701C4.72216 14.7547 4.71346 14.4704 4.71346 12.073C4.71346 9.67558 4.72288 9.3921 4.76571 8.44501C4.80559 7.56973 4.95255 7.09478 5.07472 6.77784C5.23799 6.3587 5.43246 6.05964 5.74664 5.74521C6.06083 5.43078 6.35978 5.23615 6.77989 5.07369C7.09609 4.95045 7.57226 4.80465 8.44806 4.76486C9.39493 4.72134 9.67936 4.71265 12.0772 4.71265C14.4749 4.71265 14.7597 4.72206 15.7073 4.76486C16.5831 4.80472 17.0584 4.95159 17.3755 5.07369C17.7949 5.23615 18.0941 5.43121 18.4087 5.74521C18.7234 6.05921 18.9174 6.3587 19.0807 6.77784C19.204 7.09385 19.3499 7.56973 19.3897 8.44501C19.4332 9.3921 19.4419 9.67558 19.4419 12.073C19.4419 14.4704 19.4332 14.7539 19.3897 15.701C19.3498 16.5763 19.2032 17.052 19.0807 17.3682C18.9174 17.7873 18.7229 18.0864 18.4087 18.4001C18.0946 18.7138 17.7949 18.9084 17.3755 19.0716C17.0593 19.1949 16.5831 19.3407 15.7073 19.3804C14.7605 19.424 14.476 19.4327 12.0772 19.4327C9.67829 19.4327 9.39464 19.424 8.44806 19.3804ZM8.37368 3.14977C7.41739 3.19329 6.76394 3.34483 6.19327 3.56675C5.60227 3.79593 5.10196 4.1034 4.602 4.60226C4.10205 5.10112 3.79519 5.60193 3.56588 6.19258C3.34382 6.76326 3.19219 7.41596 3.14864 8.37168C3.10437 9.3289 3.09424 9.63493 3.09424 12.0729C3.09424 14.511 3.10437 14.817 3.14864 15.7742C3.19219 16.73 3.34382 17.3826 3.56588 17.9533C3.79519 18.5436 4.10212 19.045 4.602 19.5436C5.10188 20.0423 5.60227 20.3493 6.19327 20.5791C6.76502 20.801 7.41739 20.9526 8.37368 20.9961C9.33198 21.0396 9.63768 21.0505 12.0772 21.0505C14.5166 21.0505 14.8228 21.0403 15.7806 20.9961C16.737 20.9526 17.39 20.801 17.961 20.5791C18.5517 20.3493 19.0524 20.0425 19.5523 19.5436C20.0523 19.0448 20.3585 18.5436 20.5884 17.9533C20.8105 17.3826 20.9628 16.7299 21.0057 15.7742C21.0492 14.8163 21.0594 14.511 21.0594 12.0729C21.0594 9.63493 21.0492 9.3289 21.0057 8.37168C20.9621 7.41589 20.8105 6.7629 20.5884 6.19258C20.3585 5.60229 20.0515 5.10191 19.5523 4.60226C19.0531 4.10261 18.5517 3.79593 17.9618 3.56675C17.39 3.34483 16.7369 3.19257 15.7814 3.14977C14.8236 3.10624 14.5173 3.0954 12.0779 3.0954C9.6384 3.0954 9.33198 3.10552 8.37368 3.14977Z" fill="white"/>
</svg>
