<svg width="49" height="48" viewBox="0 0 49 48" fill="none" xmlns="http://www.w3.org/2000/svg">
<path d="M47.7464 14.4C47.6714 12 47.2214 10.275 46.6964 8.7C46.1714 7.125 45.3464 5.85 44.0714 4.575C42.7964 3.3 41.5214 2.55 40.0214 1.95C38.5214 1.35 36.8714 0.975 34.3214 0.9C31.6964 0.75 30.9464 0.75 24.5714 0.75C18.1964 0.75 17.5214 0.75 14.9714 0.825C12.4214 0.9 10.8464 1.35 9.27141 1.875C7.69641 2.4 6.42141 3.3 5.14641 4.575C3.87141 5.85 3.04641 7.125 2.52141 8.7C1.92141 10.2 1.54641 11.85 1.47141 14.4C1.39641 16.95 1.32141 17.625 1.32141 24C1.32141 30.375 1.32141 31.05 1.39641 33.6C1.47141 36.15 1.92141 37.725 2.44641 39.3C2.97141 40.875 3.79641 42.15 5.07141 43.425C6.34641 44.7 7.69641 45.525 9.19641 46.05C10.6964 46.575 12.3464 47.025 14.8964 47.1C17.4464 47.25 18.1214 47.25 24.4964 47.25C30.8714 47.25 31.5464 47.25 34.0964 47.175C36.6464 47.1 38.2214 46.65 39.7964 46.125C41.3714 45.6 42.6464 44.775 43.9214 43.5C45.1964 42.225 46.0214 40.875 46.5464 39.375C47.0714 37.875 47.5214 36.225 47.5964 33.675C47.6714 31.275 47.6714 30.525 47.6714 24.15C47.6714 17.775 47.8214 16.95 47.7464 14.4ZM43.5464 33.375C43.4714 35.625 43.0214 36.825 42.7214 37.725C42.2714 38.775 41.7464 39.6 40.9214 40.35C40.0964 41.175 39.3464 41.625 38.2964 42.15C37.4714 42.45 36.2714 42.9 33.9464 42.975C31.5464 42.975 30.7964 42.975 24.6464 42.975C18.4964 42.975 17.6714 42.975 15.2714 42.9C13.0214 42.825 11.8214 42.375 10.9214 42.075C9.87141 41.625 9.04641 41.1 8.29641 40.275C7.47141 39.45 7.02141 38.7 6.49641 37.65C6.19641 36.825 5.74641 35.625 5.67141 33.3C5.67141 30.975 5.67141 30.225 5.67141 24C5.67141 17.775 5.67141 17.025 5.74641 14.625C5.82141 12.375 6.27141 11.175 6.57141 10.275C7.02141 9.225 7.54641 8.4 8.29641 7.65C9.12141 6.825 9.87141 6.375 10.9214 5.925C11.7464 5.625 12.9464 5.175 15.2714 5.1C17.6714 5.025 18.4214 5.025 24.6464 5.025C30.8714 5.025 31.6214 5.025 34.0214 5.1C36.2714 5.175 37.4714 5.625 38.3714 5.925C39.4214 6.375 40.2464 6.9 40.9964 7.65C41.8214 8.475 42.2714 9.225 42.7964 10.275C43.0964 11.1 43.5464 12.3 43.6214 14.625C43.6964 17.025 43.6964 17.775 43.6964 24C43.6964 30.225 43.6214 30.975 43.5464 33.375Z" fill="black"/>
<path d="M24.5726 12.0747C17.8976 12.0747 12.6476 17.4747 12.6476 23.9997C12.6476 30.6747 18.0476 35.9247 24.5726 35.9247C31.0976 35.9247 36.5726 30.6747 36.5726 23.9997C36.5726 17.3247 31.2476 12.0747 24.5726 12.0747ZM24.5726 31.7997C20.2226 31.7997 16.7726 28.2747 16.7726 23.9997C16.7726 19.7247 20.2976 16.1997 24.5726 16.1997C28.9226 16.1997 32.3726 19.6497 32.3726 23.9997C32.3726 28.3497 28.9226 31.7997 24.5726 31.7997Z" fill="black"/>
<path d="M37.0964 14.3251C38.629 14.3251 39.8714 13.0827 39.8714 11.5501C39.8714 10.0175 38.629 8.77515 37.0964 8.77515C35.5638 8.77515 34.3214 10.0175 34.3214 11.5501C34.3214 13.0827 35.5638 14.3251 37.0964 14.3251Z" fill="black"/>
</svg>
