<svg width="48" height="49" viewBox="0 0 48 49" fill="none" xmlns="http://www.w3.org/2000/svg">
<path d="M40.5271 4.24609C34.5772 4.24609 20.2324 5.20241 11.6255 13.8093C6.07512 19.3597 5.58356 28.0329 10.1147 34.1576L3.32031 40.952L6.61443 44.2461L13.4088 37.4517C16.1613 39.4878 19.4228 40.5245 22.6913 40.5245C26.696 40.5245 30.7018 38.9962 33.7571 35.9409C44.8229 24.8751 43.2423 4.32414 43.2423 4.32414C43.2423 4.32414 42.2277 4.24609 40.5271 4.24609ZM11.7012 24.8751C11.7012 21.9397 12.8439 19.1791 14.9196 17.1034C20.3943 11.6287 28.9126 9.77085 35.0978 9.17329L13.4519 30.8203C12.3162 29.0626 11.7012 27.0172 11.7012 24.8751ZM30.463 32.6456C28.3873 34.7213 25.6278 35.864 22.6913 35.864C20.5492 35.864 18.5038 35.249 16.7461 34.1133L38.3861 12.4732C37.7851 18.6759 35.9249 27.1838 30.463 32.6456Z" fill="black"/>
</svg>
