<svg width="40" height="40" viewBox="0 0 40 40" fill="none" xmlns="http://www.w3.org/2000/svg">
<path fill-rule="evenodd" clip-rule="evenodd" d="M14.0244 13.084C12.9444 13.084 11.9319 13.5015 11.1744 14.2602C9.60195 15.8352 9.60195 18.399 11.1757 19.9765L19.9994 28.8152L28.8244 19.9765C30.3982 18.399 30.3982 15.8352 28.8244 14.2602C27.3094 12.7415 24.6394 12.744 23.1244 14.2602L20.8844 16.504C20.4144 16.9752 19.5844 16.9752 19.1144 16.504L16.8744 14.259C16.1169 13.5015 15.1057 13.084 14.0244 13.084ZM19.9994 31.834C19.6682 31.834 19.3494 31.7027 19.1157 31.4665L9.4057 21.7415C6.8607 19.1915 6.8607 15.0427 9.4057 12.4927C10.6357 11.2627 12.2757 10.584 14.0244 10.584C15.7732 10.584 17.4144 11.2627 18.6432 12.4927L19.9994 13.8515L21.3557 12.494C22.5857 11.2627 24.2257 10.584 25.9757 10.584C27.7232 10.584 29.3644 11.2627 30.5932 12.4927C33.1394 15.0427 33.1394 19.1915 30.5944 21.7415L20.8844 31.4677C20.6494 31.7027 20.3319 31.834 19.9994 31.834Z" fill="black"/>
</svg>
