<svg width="24" height="24" viewBox="0 0 24 24" fill="none" xmlns="http://www.w3.org/2000/svg">
<path fill-rule="evenodd" clip-rule="evenodd" d="M13.6429 7.00013C13.6429 5.89713 12.6818 5.00012 11.5 5.00012C10.3182 5.00012 9.35718 5.89713 9.35718 7.00013C9.35718 8.10313 10.3182 9.00014 11.5 9.00014C12.6818 9.00014 13.6429 8.10313 13.6429 7.00013ZM15.7856 7.00001C15.7856 9.20602 13.8634 11 11.4999 11C9.1363 11 7.21416 9.20602 7.21416 7.00001C7.21416 4.79401 9.1363 3 11.4999 3C13.8634 3 15.7856 4.79401 15.7856 7.00001ZM4 20C4 16.14 7.36536 13 11.5 13C15.6346 13 19 16.14 19 20C19 20.552 18.5211 21 17.9286 21C17.3361 21 16.8571 20.552 16.8571 20C16.8571 17.243 14.4539 15 11.5 15C8.54607 15 6.14286 17.243 6.14286 20C6.14286 20.552 5.66393 21 5.07143 21C4.47893 21 4 20.552 4 20Z" fill="black"/>
</svg>
