<svg width="48" height="49" viewBox="0 0 48 49" fill="none" xmlns="http://www.w3.org/2000/svg">
<path d="M41.6009 25.6873C38.9558 23.7052 35.1886 24.2443 33.2135 26.8724C32.7715 27.4434 31.9544 28.3485 30.9014 29.2665C28.8133 26.4014 23.953 24.4883 18.0007 24.4883C10.0193 24.4883 4 27.9275 4 32.4887V44.4893H24.001C34.8706 44.4893 42.483 34.5138 42.803 34.0898C44.7871 31.4416 44.2491 27.6734 41.6009 25.6873ZM24.001 40.4891H10.0003H8.00021V32.4887C8.00021 30.8576 11.8964 28.4885 18.0007 28.4885C22.976 28.4885 26.4832 30.0616 27.6112 31.5266C26.4612 32.1037 25.2301 32.4887 24.001 32.4887H16.0006V36.4889H24.001C30.9754 36.4889 36.3547 29.3525 36.4007 29.2895C37.0617 28.4075 38.3198 28.2275 39.2018 28.8885C40.0839 29.5505 40.2639 30.8076 39.6018 31.6897C39.3328 32.0477 32.8945 40.4891 24.001 40.4891Z" fill="black"/>
<path d="M24.0004 22.818C27.8666 22.818 31.0007 19.9079 31.0007 16.3177C31.0007 9.81738 24.0004 4.24609 24.0004 4.24609C24.0004 4.24609 17 9.81738 17 16.3177C17 19.9079 20.1342 22.818 24.0004 22.818ZM24.0004 9.87038C25.5084 11.6615 27.0005 14.0486 27.0005 16.3187C27.0005 17.6968 25.6544 18.8188 24.0004 18.8188C22.3463 18.8188 21.0002 17.6968 21.0002 16.3187C21.0002 14.0486 22.4923 11.6615 24.0004 9.87038Z" fill="black"/>
</svg>
