<svg width="48" height="48" viewBox="0 0 48 48" fill="none" xmlns="http://www.w3.org/2000/svg">
<g clip-path="url(#clip0_39_878)">
<path d="M17.341 33.487L20.514 30.314C21.542 30.868 22.679 31.149 23.817 31.149C25.6 31.149 27.383 30.469 28.743 29.109C33.669 24.183 32.965 15.035 32.965 15.035C32.965 15.035 32.514 15 31.757 15C29.108 15 22.723 15.426 18.891 19.257C16.662 21.486 16.262 24.848 17.685 27.487L14.512 30.659L17.341 33.487ZM21.719 22.085C23.559 20.245 26.506 19.496 28.81 19.195C28.484 21.644 27.683 24.511 25.914 26.28C25.354 26.84 24.609 27.149 23.816 27.149C23.024 27.149 22.279 26.84 21.718 26.28C21.158 25.72 20.849 24.975 20.849 24.182C20.849 23.389 21.159 22.646 21.719 22.085Z" fill="#292D32"/>
<path d="M15.022 17.672L13.469 13.986L10.685 15.159C13.612 10.775 18.609 8 24 8C32.822 8 40 15.178 40 24H44C44 12.972 35.028 4 24 4C17.022 4 10.58 7.723 6.98501 13.542L5.99801 10.622L2.20901 11.903L5.51401 21.677L15.022 17.672Z" fill="#292D32"/>
<path d="M32.978 30.328L34.531 34.014L37.315 32.841C34.388 37.225 29.391 40 24 40C15.178 40 8 32.822 8 24H4C4 35.028 12.972 44 24 44C30.978 44 37.42 40.277 41.015 34.458L42.002 37.378L45.791 36.097L42.486 26.323L32.978 30.328Z" fill="#292D32"/>
</g>
<defs>
<clipPath id="clip0_39_878">
<rect width="48" height="48" fill="white"/>
</clipPath>
</defs>
</svg>
