<svg width="48" height="48" viewBox="0 0 48 48" fill="none" xmlns="http://www.w3.org/2000/svg">
<g clip-path="url(#clip0_39_877)">
<path d="M17.074 33.829L19.329 35.926H13.153C11.267 35.926 9.86401 35.367 9.30501 34.392C8.74501 33.417 8.96901 31.924 9.91901 30.295L13.047 24.934L9.59201 22.918L6.46401 28.279C4.74701 31.221 4.52501 34.1 5.83601 36.383C7.14801 38.667 9.74601 39.925 13.153 39.925H19.33L17.074 42.022L19.798 44.952L27.355 37.927L19.798 30.9L17.074 33.829Z" fill="#292D32"/>
<path d="M35.213 16.918L30.918 9.556C29.205 6.618 26.802 5 24.152 5C21.503 5 19.1 6.618 17.386 9.556L15.362 13.025L14.687 10.019L10.785 10.896L13.046 20.963L22.923 17.976L21.765 14.148L18.819 15.039L20.842 11.572C21.794 9.938 23.001 9 24.152 9C25.303 9 26.51 9.938 27.464 11.571L31.759 18.933L35.213 16.918Z" fill="#292D32"/>
<path d="M32.953 30.9542L36.855 31.8312L37.53 28.8272L38.386 30.2942C39.336 31.9232 39.56 33.4162 39 34.3922C38.44 35.3672 37.038 35.9252 35.152 35.9252H31.152V39.9252H35.152C38.558 39.9252 41.157 38.6672 42.468 36.3842C43.78 34.1002 43.557 31.2222 41.841 28.2792L40.984 26.8102L43.932 27.7012L45.09 23.8732L35.214 20.8862L32.953 30.9542Z" fill="#292D32"/>
</g>
<defs>
<clipPath id="clip0_39_877">
<rect width="48" height="48" fill="white"/>
</clipPath>
</defs>
</svg>
