<svg width="48" height="48" viewBox="0 0 48 48" fill="none" xmlns="http://www.w3.org/2000/svg">
<g clip-path="url(#clip0_39_875)">
<path d="M30 25C27.239 25 25 27.239 25 30C25 32.761 27.239 35 30 35C32.761 35 35 32.761 35 30C35 27.239 32.761 25 30 25ZM30 31C29.449 31 29 30.551 29 30C29 29.449 29.449 29 30 29C30.551 29 31 29.449 31 30C31 30.551 30.551 31 30 31Z" fill="#292D32"/>
<path d="M23 18C23 15.239 20.761 13 18 13C15.239 13 13 15.239 13 18C13 20.761 15.239 23 18 23C20.761 23 23 20.761 23 18ZM17 18C17 17.449 17.449 17 18 17C18.551 17 19 17.449 19 18C19 18.551 18.551 19 18 19C17.449 19 17 18.551 17 18Z" fill="#292D32"/>
<path d="M42 8C43.1046 8 44 7.10457 44 6C44 4.89543 43.1046 4 42 4C40.8954 4 40 4.89543 40 6C40 7.10457 40.8954 8 42 8Z" fill="#292D32"/>
<path d="M29.9994 15.1716L15.1716 29.9995L18 32.8279L32.8278 18L29.9994 15.1716Z" fill="#292D32"/>
<path d="M42 11.0002C42 8.24317 39.757 6.00017 37 6.00017C35.994 6.00017 35.035 6.30017 34.227 6.84117C26.395 2.14317 16.366 3.30217 9.799 9.85617C6.014 13.6352 3.929 18.6572 3.929 24.0002C3.929 29.3432 6.014 34.3652 9.799 38.1442C13.705 42.0422 18.835 43.9922 23.966 43.9912C29.095 43.9912 34.227 42.0422 38.132 38.1442C44.696 31.5922 45.861 21.5862 41.163 13.7692C41.702 12.9622 42 12.0052 42 11.0002ZM35.305 35.3122C29.052 41.5552 18.878 41.5542 12.624 35.3122C9.596 32.2902 7.929 28.2722 7.929 24.0002C7.929 19.7282 9.596 15.7102 12.625 12.6882C15.738 9.58017 19.824 7.98917 23.94 7.98917C27.199 7.98917 30.477 8.98617 33.307 11.0182L35.024 12.2512L36.16 10.4692C36.347 10.1762 36.661 10.0002 37 10.0002C37.551 10.0002 38 10.4482 38 11.0002C38 11.3392 37.825 11.6522 37.532 11.8402L35.751 12.9792L36.985 14.6942C41.582 21.0812 40.875 29.7532 35.305 35.3122Z" fill="#292D32"/>
</g>
<defs>
<clipPath id="clip0_39_875">
<rect width="48" height="48" fill="white"/>
</clipPath>
</defs>
</svg>
