<svg width="48" height="48" viewBox="0 0 48 48" fill="none" xmlns="http://www.w3.org/2000/svg">
<g clip-path="url(#clip0_39_876)">
<path d="M41.599 25.199C38.954 23.217 35.187 23.756 33.212 26.384C32.77 26.955 31.953 27.86 30.9 28.778C28.812 25.913 23.952 24 18 24C10.019 24 4 27.439 4 32V44H24C34.869 44 42.481 34.025 42.801 33.601C44.785 30.953 44.247 27.185 41.599 25.199ZM24 40H10H8V32C8 30.369 11.896 28 18 28C22.975 28 26.482 29.573 27.61 31.038C26.46 31.615 25.229 32 24 32H16V36H24C30.974 36 36.353 28.864 36.399 28.801C37.06 27.919 38.318 27.739 39.2 28.4C40.082 29.062 40.262 30.319 39.6 31.201C39.331 31.559 32.893 40 24 40Z" fill="#292D32"/>
<path d="M24 22.3298C27.866 22.3298 31 19.4198 31 15.8298C31 9.32979 24 3.75879 24 3.75879C24 3.75879 17 9.32979 17 15.8298C17 19.4198 20.134 22.3298 24 22.3298ZM24 9.38279C25.508 11.1738 27 13.5608 27 15.8308C27 17.2088 25.654 18.3308 24 18.3308C22.346 18.3308 21 17.2088 21 15.8308C21 13.5608 22.492 11.1738 24 9.38279Z" fill="#292D32"/>
</g>
<defs>
<clipPath id="clip0_39_876">
<rect width="48" height="48" fill="white"/>
</clipPath>
</defs>
</svg>
