<svg width="24" height="24" viewBox="0 0 24 24" fill="none" xmlns="http://www.w3.org/2000/svg">
<path d="M3.78174 19.7401L4.96127 15.3582C4.01001 13.6512 3.70778 11.6594 4.11005 9.74806C4.51232 7.83677 5.59211 6.13427 7.15127 4.95299C8.71042 3.7717 10.6444 3.19087 12.5982 3.31706C14.5521 3.44326 16.3948 4.26802 17.7882 5.64001C19.1816 7.012 20.0322 8.83917 20.184 10.7863C20.3358 12.7333 19.7785 14.6697 18.6145 16.2401C17.4505 17.8104 15.7578 18.9094 13.847 19.3353C11.9362 19.7613 9.93545 19.4856 8.21196 18.5589L3.78174 19.7401ZM8.42557 16.9192L8.69956 17.0813C9.94792 17.8194 11.406 18.1248 12.8465 17.95C14.2871 17.7752 15.6292 17.1299 16.6637 16.1149C17.6983 15.0998 18.3671 13.7719 18.566 12.3381C18.7649 10.9043 18.4827 9.44508 17.7634 8.18793C17.0441 6.93079 15.9281 5.94629 14.5892 5.38787C13.2504 4.82944 11.764 4.72845 10.3616 5.10064C8.95923 5.47283 7.71967 6.29729 6.8361 7.44553C5.95253 8.59378 5.47458 10.0013 5.47674 11.4488C5.47556 12.649 5.80834 13.826 6.43801 14.8487L6.60983 15.1312L5.95041 17.5769L8.42557 16.9192Z" fill="white"/>
<path fill-rule="evenodd" clip-rule="evenodd" d="M15.0754 12.5739C14.9148 12.4447 14.7267 12.3538 14.5255 12.308C14.3244 12.2623 14.1154 12.2629 13.9145 12.3099C13.6126 12.435 13.4176 12.9074 13.2225 13.1437C13.1814 13.2003 13.121 13.24 13.0526 13.2554C12.9842 13.2707 12.9125 13.2607 12.851 13.2271C11.7459 12.7953 10.8196 12.0036 10.2226 10.9805C10.1717 10.9167 10.1476 10.8356 10.1554 10.7544C10.1632 10.6732 10.2023 10.5982 10.2644 10.5451C10.4819 10.3303 10.6417 10.0643 10.7288 9.77157C10.7481 9.44873 10.674 9.12714 10.5152 8.84517C10.3924 8.44985 10.1587 8.09785 9.84181 7.83076C9.67835 7.75743 9.49711 7.73284 9.31995 7.75996C9.14279 7.78709 8.97728 7.86476 8.84339 7.98362C8.61095 8.18365 8.42646 8.43313 8.30349 8.71371C8.18053 8.99428 8.12223 9.29879 8.13288 9.60482C8.1336 9.77667 8.15543 9.94779 8.1979 10.1143C8.30573 10.5145 8.47156 10.8968 8.69014 11.2492C8.84784 11.5191 9.01991 11.7804 9.20561 12.032C9.8091 12.8583 10.5677 13.5599 11.4393 14.0979C11.8767 14.3712 12.3441 14.5935 12.8324 14.7603C13.3397 14.9896 13.8998 15.0776 14.4531 15.015C14.7684 14.9674 15.0672 14.8432 15.3231 14.6534C15.579 14.4636 15.7841 14.214 15.9206 13.9265C16.0008 13.7528 16.0251 13.5587 15.9903 13.3706C15.9067 12.9862 15.3912 12.7592 15.0754 12.5739Z" fill="white"/>
</svg>
