<svg width="50" height="48" viewBox="0 0 50 48" fill="none" xmlns="http://www.w3.org/2000/svg">
<path d="M21.4737 42.9474C9.63697 42.9474 0 33.3104 0 21.4737C0 9.63697 9.63697 0 21.4737 0C33.3104 0 42.9474 9.63697 42.9474 21.4737C42.9474 33.3104 33.3104 42.9474 21.4737 42.9474ZM21.4737 3.14249C11.3549 3.14249 3.14249 11.3758 3.14249 21.4737C3.14249 31.5716 11.3549 39.8049 21.4737 39.8049C31.5925 39.8049 39.8049 31.5716 39.8049 21.4737C39.8049 11.3758 31.5925 3.14249 21.4737 3.14249Z" fill="#292D32"/>
<path fill-rule="evenodd" clip-rule="evenodd" d="M46.6515 47.4559L34.7422 36.5829L37.4392 33.6289L49.3485 44.5019C50.1642 45.2466 50.2218 46.5117 49.477 47.3274C48.7323 48.1431 47.4673 48.2007 46.6515 47.4559Z" fill="#292D32"/>
</svg>
