<svg width="48" height="48" viewBox="0 0 48 48" fill="none" xmlns="http://www.w3.org/2000/svg">
<g clip-path="url(#clip0_39_874)">
<path d="M37.602 8C32.494 8 20.179 8.821 12.79 16.21C8.025 20.975 7.603 28.421 11.493 33.679L5.66 39.512L8.488 42.34L14.321 36.507C16.684 38.255 19.484 39.145 22.29 39.145C25.728 39.145 29.167 37.833 31.79 35.21C41.29 25.71 39.933 8.067 39.933 8.067C39.933 8.067 39.062 8 37.602 8ZM12.855 25.71C12.855 23.19 13.836 20.82 15.618 19.038C20.318 14.338 27.631 12.743 32.941 12.23L14.358 30.814C13.383 29.305 12.855 27.549 12.855 25.71ZM28.962 32.381C27.18 34.163 24.811 35.144 22.29 35.144C20.451 35.144 18.695 34.616 17.186 33.641L35.764 15.063C35.248 20.388 33.651 27.692 28.962 32.381Z" fill="#292D32"/>
</g>
<defs>
<clipPath id="clip0_39_874">
<rect width="48" height="48" fill="white"/>
</clipPath>
</defs>
</svg>
