<svg width="52" height="52" viewBox="0 0 52 52" fill="none" xmlns="http://www.w3.org/2000/svg">
<path d="M26.0317 2C12.9639 2.00407 2.0461 12.9359 2.04616 25.993C2.04618 30.7003 3.44721 35.3503 6.06214 39.2814L2.0387 49.9861L15.5117 47.5496C18.8028 49.1581 22.4168 49.9641 26.0317 49.9665C39.1107 49.9755 50.0387 39.0581 50.0387 25.993C50.0387 12.9428 39.1068 1.99228 26.0317 2Z" stroke="black" stroke-width="3" stroke-linecap="round" stroke-linejoin="round"/>
<path d="M27.3523 36.5596C30.5982 38.6433 33.9823 37.1256 36.3391 35.3679C37.967 34.1537 37.9129 31.812 36.5225 30.3318L33.7808 27.413C32.7408 28.453 30.7141 28.9677 29.306 28.5391C26.2792 27.618 25.0089 26.0408 23.9794 24.4371C22.7971 22.5952 24.1322 19.8444 25.1723 18.8044L22.1163 16.0145C20.8279 14.8384 18.871 14.6399 17.7469 15.9739C15.5227 18.6133 14.1395 22.6203 15.7777 25.1718C18.7184 29.7521 22.7717 33.6193 27.3523 36.5596Z" stroke="black" stroke-width="3" stroke-linecap="round" stroke-linejoin="round"/>
</svg>
